<?xml version="1.0" encoding="UTF-8" standalone="no"?>
<svg
   xmlns:dc="http://purl.org/dc/elements/1.1/"
   xmlns:cc="http://creativecommons.org/ns#"
   xmlns:rdf="http://www.w3.org/1999/02/22-rdf-syntax-ns#"
   xmlns:svg="http://www.w3.org/2000/svg"
   xmlns="http://www.w3.org/2000/svg"
   xmlns:sodipodi="http://sodipodi.sourceforge.net/DTD/sodipodi-0.dtd"
   xmlns:inkscape="http://www.inkscape.org/namespaces/inkscape"
   id="fd59ce54-f850-4dfc-bc34-dd7d379d600e"
   data-name="Layer 1"
   width="1074.3875"
   height="407.30432"
   viewBox="0 0 1074.3875 407.30431"
   version="1.1"
   sodipodi:docname="not_found.svg"
   inkscape:version="1.0.1 (1.0.1+r73)">
  <metadata
     id="metadata958">
    <rdf:RDF>
      <cc:Work
         rdf:about="">
        <dc:format>image/svg+xml</dc:format>
        <dc:type
           rdf:resource="http://purl.org/dc/dcmitype/StillImage" />
        <dc:title>page not found</dc:title>
      </cc:Work>
    </rdf:RDF>
  </metadata>
  <defs
     id="defs956">
    <rect
       x="252.55725"
       y="597.23529"
       width="368.87131"
       height="259.68561"
       id="rect1523" />
    <filter
       inkscape:collect="always"
       style="color-interpolation-filters:sRGB"
       id="filter1527"
       x="-1.4365854e-06"
       width="1.0000029"
       y="-1.0303207e-06"
       height="1.0000021">
      <feGaussianBlur
         inkscape:collect="always"
         stdDeviation="1.178e-05"
         id="feGaussianBlur1529" />
    </filter>
    <rect
       x="252.55725"
       y="597.23529"
       width="368.87131"
       height="259.68561"
       id="rect1535" />
    <rect
       x="252.55725"
       y="597.23529"
       width="368.87131"
       height="259.68561"
       id="rect1545" />
    <rect
       x="252.55725"
       y="597.23529"
       width="368.87131"
       height="259.68561"
       id="rect1547" />
    <rect
       x="252.55725"
       y="597.23529"
       width="368.87131"
       height="259.68561"
       id="rect1557" />
    <rect
       x="252.55725"
       y="597.23529"
       width="368.87131"
       height="259.68561"
       id="rect1559" />
  </defs>
  <sodipodi:namedview
     pagecolor="#ffffff"
     bordercolor="#666666"
     borderopacity="1"
     objecttolerance="10"
     gridtolerance="10"
     guidetolerance="10"
     inkscape:pageopacity="0"
     inkscape:pageshadow="2"
     inkscape:window-width="1920"
     inkscape:window-height="1016"
     id="namedview954"
     showgrid="false"
     fit-margin-top="0"
     fit-margin-left="0"
     fit-margin-right="0"
     fit-margin-bottom="0"
     inkscape:zoom="0.40508887"
     inkscape:cx="341.26076"
     inkscape:cy="630.91911"
     inkscape:window-x="0"
     inkscape:window-y="27"
     inkscape:window-maximized="1"
     inkscape:current-layer="fd59ce54-f850-4dfc-bc34-dd7d379d600e" />
  <title
     id="title841">page not found</title>
  <g
     id="g1673"
     transform="translate(79.857324,-746.623)">
    <g
       id="g1618"
       transform="translate(-79.858075,569.69633)">
      <ellipse
         cx="540.64343"
         cy="549.30939"
         rx="527.5"
         ry="34.9216"
         fill="#f2f2f2"
         id="ellipse1561" />
      <path
         d="m 1069.9178,577.43414 a 20.81252,20.81252 0 1 0 2.7716,-39.91524 l 0.5209,10.7122 -5.0681,-9.18045 a 20.734,20.734 0 0 0 -10.6837,11.72261 20.40847,20.40847 0 0 0 -1.1971,5.62986 20.80856,20.80856 0 0 0 13.6564,21.03102 z"
         transform="translate(-63.054,-157.8845)"
         fill="#57b894"
         id="path1563" />
      <path
         d="m 1094.9952,701.67756 c -1.7891,-9.11027 5.9633,-17.1868 13.6208,-22.43651 7.6576,-5.24971 16.605,-10.40779 19.2178,-19.31684 3.755,-12.80387 -7.43,-24.52981 -16.1357,-34.64176 a 125.30044,125.30044 0 0 1 -16.5236,-24.55738 c -1.811,-3.5325 -3.4755,-7.22528 -3.9522,-11.16626 -0.6864,-5.67546 1.137,-11.32309 2.9739,-16.73673 q 9.1793,-27.05169 19.6285,-53.65005"
         transform="translate(-63.054,-157.8845)"
         fill="none"
         stroke="#3f3d56"
         stroke-miterlimit="10"
         id="path1565" />
      <path
         d="m 1070.7749,574.6762 a 20.81252,20.81252 0 1 0 2.7716,-39.91524 l 0.521,10.7122 -5.0682,-9.18045 a 20.734,20.734 0 0 0 -10.6836,11.72261 20.40847,20.40847 0 0 0 -1.1972,5.62986 20.80855,20.80855 0 0 0 13.6564,21.03102 z"
         transform="translate(-63.054,-157.8845)"
         fill="none"
         stroke="#3f3d56"
         stroke-miterlimit="10"
         id="path1567" />
      <path
         d="m 1092.4514,515.47266 a 20.78819,20.78819 0 0 1 14.9799,-13.19764 l 1.7136,10.18378 3.177,-10.69566 a 20.81,20.81 0 1 1 -19.8706,13.70952 z"
         transform="translate(-63.054,-157.8845)"
         fill="#57b894"
         id="path1569" />
      <path
         d="m 1093.5942,511.7954 a 20.7882,20.7882 0 0 1 14.9799,-13.19763 l 1.7136,10.18378 3.177,-10.69567 a 20.81,20.81 0 1 1 -19.8705,13.70952 z"
         transform="translate(-63.054,-157.8845)"
         fill="none"
         stroke="#3f3d56"
         stroke-miterlimit="10"
         id="path1571" />
      <path
         d="m 1108.0447,625.48885 a 20.81,20.81 0 0 0 18.419,-37.02267 l -2.4412,8.21926 -1.731,-10.30382 a 0.36183,0.36183 0 0 0 -0.053,-0.0201 20.81113,20.81113 0 1 0 -14.1938,39.12733 z"
         transform="translate(-63.054,-157.8845)"
         fill="#57b894"
         id="path1573" />
      <path
         d="m 1109.035,621.76417 a 20.81,20.81 0 0 0 18.419,-37.02267 l -2.4412,8.21926 -1.7311,-10.30382 a 0.3621,0.3621 0 0 0 -0.053,-0.0201 20.81113,20.81113 0 1 0 -14.1938,39.12733 z"
         transform="translate(-63.054,-157.8845)"
         fill="none"
         stroke="#3f3d56"
         stroke-miterlimit="10"
         id="path1575" />
      <path
         d="m 1086.3778,660.05148 a 20.80131,20.80131 0 1 0 4.0106,-16.29737 l 9.2727,13.95654 -12.67,-7.40768 a 20.61638,20.61638 0 0 0 -0.6133,9.74851 z"
         transform="translate(-63.054,-157.8845)"
         fill="#57b894"
         id="path1577" />
      <path
         d="m 1087.2349,657.29354 a 20.80131,20.80131 0 1 0 4.0106,-16.29737 l 9.2727,13.95655 -12.6699,-7.40769 a 20.61626,20.61626 0 0 0 -0.6134,9.74851 z"
         transform="translate(-63.054,-157.8845)"
         fill="none"
         stroke="#3f3d56"
         stroke-miterlimit="10"
         id="path1579" />
      <path
         d="m 72.06146,628.13325 a 13.67421,13.67421 0 1 0 1.821,-26.225 l 0.34227,7.03811 -3.32987,-6.03172 a 13.62263,13.62263 0 0 0 -7.01936,7.702 13.40883,13.40883 0 0 0 -0.78654,3.69893 13.6716,13.6716 0 0 0 8.9725,13.81768 z"
         transform="translate(-63.054,-157.8845)"
         fill="#57b894"
         id="path1581" />
      <path
         d="m 88.53774,709.76344 c -1.17545,-5.98561 3.918,-11.292 8.94915,-14.7412 5.03115,-3.4492 10.90978,-6.8381 12.62642,-12.69151 2.46711,-8.41238 -4.88167,-16.11653 -10.60142,-22.76027 A 82.32442,82.32442 0 0 1 88.6556,643.43581 22.20962,22.20962 0 0 1 86.05892,636.09938 c -0.451,-3.72888 0.747,-7.43947 1.95391,-10.99634 q 6.03093,-17.77346 12.89623,-35.24906"
         transform="translate(-63.054,-157.8845)"
         fill="none"
         stroke="#3f3d56"
         stroke-miterlimit="10"
         id="path1583" />
      <path
         d="m 72.62461,626.32123 a 13.6742,13.6742 0 1 0 1.821,-26.225 l 0.34227,7.03812 -3.32988,-6.03177 a 13.62262,13.62262 0 0 0 -7.01936,7.702 13.40912,13.40912 0 0 0 -0.78654,3.69892 13.67158,13.67158 0 0 0 8.97251,13.81773 z"
         transform="translate(-63.054,-157.8845)"
         fill="none"
         stroke="#3f3d56"
         stroke-miterlimit="10"
         id="path1585" />
      <path
         d="m 86.86641,587.42343 a 13.65822,13.65822 0 0 1 9.84209,-8.67109 l 1.12587,6.69093 2.08737,-7.02725 a 13.67252,13.67252 0 1 1 -13.05533,9.00741 z"
         transform="translate(-63.054,-157.8845)"
         fill="#57b894"
         id="path1587" />
      <path
         d="m 87.61727,585.0074 a 13.65822,13.65822 0 0 1 9.84209,-8.67108 l 1.12587,6.69093 L 100.6726,576 a 13.67252,13.67252 0 1 1 -13.05533,9.0074 z"
         transform="translate(-63.054,-157.8845)"
         fill="none"
         stroke="#3f3d56"
         stroke-miterlimit="10"
         id="path1589" />
      <path
         d="m 97.11155,659.70607 a 13.67255,13.67255 0 0 0 12.10164,-24.32457 l -1.60392,5.4002 -1.13733,-6.76979 a 0.238,0.238 0 0 0 -0.0348,-0.0132 13.67329,13.67329 0 1 0 -9.32559,25.70736 z"
         transform="translate(-63.054,-157.8845)"
         fill="#57b894"
         id="path1591" />
      <path
         d="m 97.76214,657.25889 a 13.67255,13.67255 0 0 0 12.10164,-24.32457 l -1.60392,5.4002 -1.13733,-6.7698 a 0.238,0.238 0 0 0 -0.0348,-0.0132 13.673291,13.673291 0 1 0 -9.32559,25.70737 z"
         transform="translate(-63.054,-157.8845)"
         fill="none"
         stroke="#3f3d56"
         stroke-miterlimit="10"
         id="path1593" />
      <path
         d="m 82.876,682.41435 a 13.66684,13.66684 0 1 0 2.635,-10.70767 l 6.09231,9.16971 -8.32438,-4.867 a 13.54535,13.54535 0 0 0 -0.40293,6.40496 z"
         transform="translate(-63.054,-157.8845)"
         fill="#57b894"
         id="path1595" />
      <path
         d="m 83.43913,680.60233 a 13.66684,13.66684 0 1 0 2.635,-10.70767 l 6.09231,9.16971 -8.32439,-4.867 a 13.54535,13.54535 0 0 0 -0.40292,6.40496 z"
         transform="translate(-63.054,-157.8845)"
         fill="none"
         stroke="#3f3d56"
         stroke-miterlimit="10"
         id="path1597" />
    </g>
    <g
       id="g1624"
       transform="translate(-19.363139)">
      <text
         xml:space="preserve"
         id="text1521"
         style="font-style:normal;font-weight:normal;font-size:40px;line-height:1.25;font-family:sans-serif;white-space:pre;shape-inside:url(#rect1523);fill:#135a80;fill-opacity:1;stroke:none;filter:url(#filter1527);"
         transform="matrix(13.397743,0,0,13.397743,-3387.8458,-7363.2237)"><tspan
           x="252.55664"
           y="633.40104"><tspan
             style="font-style:normal;font-variant:normal;font-weight:normal;font-stretch:normal;font-family:'Fira Sans';-inkscape-font-specification:'Fira Sans';fill:#135a80;fill-opacity:1">4</tspan></tspan></text>
      <text
         xml:space="preserve"
         id="text1533"
         style="font-style:normal;font-weight:normal;font-size:40px;line-height:1.25;font-family:sans-serif;white-space:pre;shape-inside:url(#rect1535);fill:none;fill-opacity:1;stroke:#000000;stroke-width:0.0298558;stroke-miterlimit:4;stroke-dasharray:none;stroke-opacity:1;filter:url(#filter1527);"
         transform="matrix(13.397743,0,0,13.397743,-3380.5838,-7371.8865)"><tspan
           x="252.55664"
           y="633.40104"><tspan
             style="font-style:normal;font-variant:normal;font-weight:normal;font-stretch:normal;font-family:'Fira Sans';-inkscape-font-specification:'Fira Sans';fill:none;fill-opacity:1;stroke:#000000;stroke-width:0.0298558;stroke-miterlimit:4;stroke-dasharray:none;stroke-opacity:1">4</tspan></tspan></text>
    </g>
    <g
       id="g1636"
       transform="translate(5.6353103,-4.2548129e-4)">
      <text
         xml:space="preserve"
         id="text1539"
         style="font-style:normal;font-weight:normal;font-size:40px;line-height:1.25;font-family:sans-serif;white-space:pre;shape-inside:url(#rect1545);fill:#135a80;fill-opacity:1;stroke:none;filter:url(#filter1527);"
         transform="matrix(13.397743,0,0,13.397743,-2776.4615,-7363.2237)"><tspan
           x="252.55664"
           y="633.40104"><tspan
             style="font-style:normal;font-variant:normal;font-weight:normal;font-stretch:normal;font-family:'Fira Sans';-inkscape-font-specification:'Fira Sans';fill:#135a80;fill-opacity:1">4</tspan></tspan></text>
      <text
         xml:space="preserve"
         id="text1543"
         style="font-style:normal;font-weight:normal;font-size:40px;line-height:1.25;font-family:sans-serif;white-space:pre;shape-inside:url(#rect1547);fill:none;fill-opacity:1;stroke:#000000;stroke-width:0.0298558;stroke-miterlimit:4;stroke-dasharray:none;stroke-opacity:1;filter:url(#filter1527);"
         transform="matrix(13.397743,0,0,13.397743,-2769.1995,-7371.8865)"><tspan
           x="252.55664"
           y="633.40104"><tspan
             style="font-style:normal;font-variant:normal;font-weight:normal;font-stretch:normal;font-family:'Fira Sans';-inkscape-font-specification:'Fira Sans';fill:none;fill-opacity:1;stroke:#000000;stroke-width:0.0298558;stroke-miterlimit:4;stroke-dasharray:none;stroke-opacity:1">4</tspan></tspan></text>
    </g>
    <g
       id="g1630"
       transform="translate(-8,-0.04162747)">
      <text
         xml:space="preserve"
         id="text1551"
         style="font-style:normal;font-weight:normal;font-size:40px;line-height:1.25;font-family:sans-serif;white-space:pre;shape-inside:url(#rect1557);fill:#2f2e41;fill-opacity:1;stroke:none;filter:url(#filter1527);"
         transform="matrix(13.397743,0,0,13.397743,-3081.6,-7363.2237)"><tspan
           x="252.55664"
           y="633.40104"><tspan
             style="font-style:normal;font-variant:normal;font-weight:normal;font-stretch:normal;font-family:'Fira Sans';-inkscape-font-specification:'Fira Sans';fill:#2f2e41;fill-opacity:1">0</tspan></tspan></text>
      <text
         xml:space="preserve"
         id="text1555"
         style="font-style:normal;font-weight:normal;font-size:40px;line-height:1.25;font-family:sans-serif;white-space:pre;shape-inside:url(#rect1559);fill:none;fill-opacity:1;stroke:#000000;stroke-width:0.0298558;stroke-miterlimit:4;stroke-dasharray:none;stroke-opacity:1;filter:url(#filter1527);"
         transform="matrix(13.397743,0,0,13.397743,-3068.2244,-7372.3812)"><tspan
           x="252.55664"
           y="633.40104"><tspan
             style="font-style:normal;font-variant:normal;font-weight:normal;font-stretch:normal;font-family:'Fira Sans';-inkscape-font-specification:'Fira Sans';fill:none;fill-opacity:1;stroke:#000000;stroke-width:0.0298558;stroke-miterlimit:4;stroke-dasharray:none;stroke-opacity:1">0</tspan></tspan></text>
    </g>
  </g>
</svg>
